<svg width="496" height="477" viewBox="0 0 496 477" fill="none" xmlns="http://www.w3.org/2000/svg">
<mask id="mask0_701_3210" style="mask-type:alpha" maskUnits="userSpaceOnUse" x="0" y="0" width="496" height="477">
<rect width="496" height="477" fill="#D9D9D9"/>
</mask>
<g mask="url(#mask0_701_3210)">
<path d="M63.3242 79.6859C63.3242 79.6859 63.223 79.6275 63.1219 79.5691C62.9196 79.4523 62.9936 79.0904 63.1104 78.8881L222.646 -154.452C222.646 -154.452 223.082 -154.74 223.343 -154.724L521.539 -42.5793C521.539 -42.5793 521.943 -42.3457 521.768 -42.0423C521.651 -41.8399 521.535 -41.6376 521.418 -41.4353L63.7872 79.8183C63.7872 79.8183 63.5265 79.8027 63.3242 79.6859ZM223.323 -153.522L64.9824 78.2155L519.363 -42.0819L223.265 -153.421L223.323 -153.522Z" fill="#48494A"/>
<path d="M63.3262 79.6898C63.3262 79.6898 63.0228 79.5146 63.0384 79.2539C63.0541 78.9932 63.2293 78.6897 63.4472 78.5458L521.179 -42.6494C521.179 -42.6494 521.541 -42.5754 521.642 -42.517C521.844 -42.4002 521.887 -42.2406 521.871 -41.9799L515.818 74.5621C515.818 74.5621 515.526 75.0679 515.207 75.1534L63.6881 79.7639C63.6881 79.7639 63.4858 79.6471 63.3847 79.5887L63.3262 79.6898ZM520.782 -41.2603L68.3153 78.524L514.807 73.9781L520.782 -41.2603Z" fill="#48494A"/>
<path d="M222.856 -153.657C222.856 -153.657 222.51 -153.991 222.627 -154.194C222.743 -154.396 222.919 -154.699 223.078 -154.742L512.004 -208.988C512.004 -208.988 512.265 -208.972 512.467 -208.855C512.568 -208.797 512.712 -208.579 512.755 -208.419L521.866 -41.986C521.866 -41.986 521.791 -41.6242 521.574 -41.4803C521.515 -41.3791 521.196 -41.2936 520.994 -41.4104L222.798 -153.555L222.856 -153.657ZM511.564 -207.758L225.335 -153.979L520.768 -42.8892L511.564 -207.758Z" fill="#48494A"/>
<path d="M549.383 320.795C549.383 320.795 549.079 320.619 549.095 320.359L520.762 -41.9484C520.762 -41.9484 520.894 -42.4114 521.112 -42.5553C521.33 -42.6992 521.591 -42.6836 521.735 -42.4656L710.992 126.146C710.992 126.146 711.221 126.683 711.046 126.987L550.021 320.624C550.021 320.624 549.585 320.911 549.383 320.795L549.282 320.736L549.383 320.795ZM522.046 -40.6677L550.131 318.799L709.859 126.706L522.147 -40.6093L522.046 -40.6677Z" fill="#48494A"/>
<path d="M710.311 127.101L521.054 -41.5106C521.054 -41.5106 520.91 -41.7285 520.867 -41.8881L511.554 -208.438C511.554 -208.438 511.687 -208.901 511.905 -209.045C512.224 -209.13 512.426 -209.014 512.512 -208.695L710.938 126.249C710.938 126.249 711.167 126.786 711.05 126.988C710.875 127.292 710.556 127.377 710.252 127.202L710.311 127.101ZM521.941 -42.3469L708.269 123.629L512.876 -206.056L521.883 -42.2458L521.941 -42.3469Z" fill="#48494A"/>
<path d="M243.116 366.782C243.116 366.782 242.914 366.665 242.812 366.606C242.668 366.388 242.684 366.128 242.902 365.984L514.891 74.2947C514.891 74.2947 515.269 74.108 515.53 74.1237C515.732 74.2405 515.934 74.3573 515.919 74.618L550.204 320.325C550.204 320.325 550.013 320.889 549.795 321.033L243.579 366.914C243.579 366.914 243.318 366.898 243.217 366.84L243.116 366.782ZM514.899 75.9173L244.918 365.529L548.916 319.986L514.84 76.0185L514.899 75.9173Z" fill="#48494A"/>
<path d="M243.114 366.78L242.911 366.663L63.2222 79.6268C63.2222 79.6268 63.0356 79.2493 63.1524 79.047C63.2692 78.8447 63.386 78.6423 63.5883 78.7591L515.325 74.0048C515.325 74.0048 515.73 74.2384 515.831 74.2968C515.975 74.5147 515.858 74.717 515.741 74.9194L243.752 366.609C243.752 366.609 243.476 366.854 243.273 366.737C243.273 366.737 243.172 366.678 243.071 366.62L243.114 366.78ZM64.7281 79.8218L243.57 365.289L514.002 75.1289L64.7281 79.8218Z" fill="#48494A"/>
<path d="M549.387 320.797C549.387 320.797 549.084 320.622 549.099 320.361L514.814 74.6547L520.825 -42.0469C520.825 -42.0469 521.117 -42.5527 521.436 -42.6382C521.697 -42.6225 521.942 -42.3462 522.086 -42.1282L550.419 320.179C550.419 320.179 550.228 320.743 549.909 320.829C549.909 320.829 549.706 320.712 549.605 320.653L549.387 320.797ZM521.437 -33.0617L515.873 74.4566L547.534 301.115L521.437 -33.0617Z" fill="#48494A"/>
<path d="M63.3239 79.6862C63.3239 79.6862 63.2227 79.6278 63.1216 79.5694C62.9193 79.4526 62.9933 79.0907 63.1101 78.8884L222.646 -154.452C222.646 -154.452 222.821 -154.755 223.082 -154.74C223.183 -154.681 223.343 -154.724 223.486 -154.506L358.289 -22.8636C358.289 -22.8636 358.476 -22.4861 358.518 -22.3266C358.401 -22.1242 358.343 -22.0231 358.226 -21.8208L63.8453 79.7175C63.8453 79.7175 63.5262 79.803 63.3239 79.6862ZM223.206 -153.319L65.0989 78.0135L356.869 -22.7396L223.147 -153.218L223.206 -153.319Z" fill="#48494A"/>
<path d="M63.3262 79.6884C63.3262 79.6884 63.0228 79.5131 63.0384 79.2524C63.0541 78.9917 63.2293 78.6882 63.3888 78.6455L357.727 -23.0523C357.727 -23.0523 358.147 -23.0794 358.249 -23.021C358.451 -22.9042 358.494 -22.7446 358.478 -22.4839L352.425 94.0581C352.425 94.0581 352.133 94.5639 351.814 94.6494L63.5285 79.8052C63.5285 79.8052 63.4274 79.7468 63.3262 79.6884ZM357.33 -21.6632L66.6769 78.7905L351.413 93.4741L357.33 -21.6632Z" fill="#48494A"/>
<path d="M549.386 320.799C549.386 320.799 549.183 320.683 549.082 320.624L357.515 -22.2282C357.515 -22.2282 357.387 -22.7069 357.605 -22.8508C357.722 -23.0531 358.041 -23.1386 358.243 -23.0218L710.894 126.092C710.894 126.092 711.197 126.268 711.181 126.528C711.224 126.688 711.208 126.949 711.049 126.991L550.024 320.628C550.024 320.628 549.748 320.873 549.487 320.858C549.487 320.858 549.386 320.799 549.284 320.741L549.386 320.799ZM359.293 -21.3365L549.74 319.251L709.644 126.855L359.293 -21.3365Z" fill="#48494A"/>
<path d="M357.66 -22.0106C357.66 -22.0106 357.357 -22.1858 357.372 -22.4465C357.329 -22.6061 357.345 -22.8668 357.505 -22.9096L511.787 -208.84C511.787 -208.84 512.064 -209.085 512.325 -209.07C512.426 -209.011 512.628 -208.894 512.83 -208.778L711.299 126.326C711.299 126.326 711.427 126.804 711.209 126.948C711.093 127.15 710.773 127.236 710.571 127.119L357.921 -21.995L357.66 -22.0106ZM512.071 -207.463L358.909 -22.7729L709.159 125.36L512.071 -207.463Z" fill="#48494A"/>
<path d="M243.11 366.779L242.907 366.662C242.907 366.662 242.721 366.285 242.838 366.082L351.433 93.8906C351.433 93.8906 351.609 93.5871 351.869 93.6028C352.029 93.56 352.29 93.5756 352.375 93.8948L550.054 320.104C550.054 320.104 550.24 320.482 550.124 320.684C550.007 320.886 549.89 321.088 549.629 321.073L243.413 366.954C243.413 366.954 243.153 366.938 243.051 366.88L243.11 366.779ZM352.137 95.2411L244.332 365.596L548.489 320.01L352.137 95.2411Z" fill="#48494A"/>
<path d="M243.11 366.782L242.908 366.665L63.2183 79.6292C63.2183 79.6292 63.0901 79.1505 63.1485 79.0493C63.2069 78.9482 63.4832 78.7031 63.7439 78.7188L352.029 93.563C352.029 93.563 352.332 93.7382 352.535 93.855C352.636 93.9134 352.62 94.1742 352.605 94.4349L244.009 366.626C244.009 366.626 243.775 367.031 243.515 367.016C243.515 367.016 243.312 366.899 243.211 366.84L243.11 366.782ZM64.7242 79.8242L243.219 364.957L351.025 94.6017L64.6231 79.7658L64.7242 79.8242Z" fill="#48494A"/>
<path d="M549.392 320.802L549.189 320.685L351.569 94.3747C351.569 94.3747 351.425 94.1568 351.382 93.9972L357.436 -22.5448C357.436 -22.5448 357.669 -22.9494 357.887 -23.0933C358.148 -23.0777 358.409 -23.0621 358.494 -22.7429L550.12 320.008C550.12 320.008 550.19 320.588 549.972 320.732C549.855 320.934 549.493 320.86 549.392 320.802ZM352.643 93.9159L546.502 315.762L358.412 -20.4977L352.542 93.8575L352.643 93.9159Z" fill="#48494A"/>
<path d="M356.423 95.2868C355.804 97.7614 353.204 99.2276 350.788 98.5069C348.313 97.8874 346.847 95.2876 347.509 92.9725C348.129 90.4978 350.627 88.9732 353.044 89.6939C355.518 90.3134 356.883 92.8549 356.322 95.2284L356.423 95.2868Z" fill="#48494A"/>
<path d="M247.89 367.381C247.271 369.856 244.671 371.322 242.255 370.602C239.78 369.982 238.314 367.382 238.976 365.067C239.595 362.593 242.094 361.068 244.51 361.789C246.985 362.408 248.35 364.95 247.789 367.323L247.89 367.381Z" fill="#48494A"/>
<path d="M68.0991 80.2887C67.4796 82.7634 64.8798 84.2296 62.4635 83.5089C59.9889 82.8894 58.5227 80.2895 59.1849 77.9744C59.8045 75.4998 62.3031 73.9752 64.7194 74.6959C67.1941 75.3154 68.5591 77.8568 67.998 80.2303L68.0991 80.2887Z" fill="#48494A"/>
</g>
</svg>
