<svg width="78" height="90" viewBox="0 0 78 90" fill="none" xmlns="http://www.w3.org/2000/svg">
<g clip-path="url(#clip0_701_1298)">
<path d="M12.6045 65.7764L7.79492 63.0052L15.5895 58.501L7.79492 62.9975V71.9983V63.0052L12.6045 65.7764Z" fill="#E0DBD1"/>
<path d="M22.4291 71.4489L20.8947 70.5633L15.5889 67.502V76.5027V67.502L22.4291 71.4489Z" fill="#E0DBD1"/>
<path d="M31.1783 76.5022L23.3838 72.0057V71.998V80.9988V72.0057L31.1783 76.5022Z" fill="#E0DBD1"/>
<path d="M15.5895 49.5003L23.384 45.0037L15.5895 40.4995L7.79492 36.0029V45.0037V54.0045V62.9976L15.5895 58.501V49.5003Z" fill="#F25F2F"/>
<path d="M23.3838 54.0049V63.0056V54.0049L30.7279 58.2419L30.2393 57.9594L23.3838 54.0049Z" fill="#E0DBD1"/>
<path d="M31.1787 58.501V67.5017V58.501L38.9733 63.0052L31.1787 58.501Z" fill="#E0DBD1"/>
<path d="M31.1787 22.4975L38.9733 18.001L31.1787 22.4975Z" fill="#E0DBD1"/>
<path d="M38.9727 18.0013L46.7672 13.4971L38.9727 18.0013Z" fill="#E0DBD1"/>
<path d="M46.7672 31.4985L38.9727 36.0027L46.7672 31.4985L54.5618 27.002L46.7672 31.4985Z" fill="#E0DBD1"/>
<path d="M38.9727 54.0047L46.7672 49.5005V58.5013V49.5005L54.5618 45.004V54.0047V63.0055L62.3563 58.5013V49.5005V40.4998V31.499L54.5618 36.0032L46.7672 40.4998L38.9727 45.004V54.0047Z" fill="#E0DBD1"/>
<path d="M38.9725 9.00029L31.178 13.4969L23.3834 18.0011L15.5889 22.4976L23.3834 27.0018L31.178 31.4984V22.4976L38.9725 18.0011L46.7671 13.4969V4.49609L38.9725 9.00029Z" fill="#F25F2F"/>
<path d="M15.5895 22.498L7.79492 27.0022V36.003V27.0022L15.5895 31.4988L7.79492 27.0022L15.5895 22.498Z" fill="#E0DBD1"/>
<path d="M23.3834 27.002L15.5889 31.4985V40.4993V31.4985L23.3834 36.0027L15.5889 31.4985L23.3834 27.002Z" fill="#E0DBD1"/>
<path d="M54.5625 18.0022L62.3571 22.4988L54.5625 18.0022L62.3571 13.5057V13.498L54.5625 18.0022Z" fill="#E0DBD1"/>
<path d="M46.7672 31.4993L54.5618 27.0027V18.002L46.7672 22.4985L38.9727 27.0027V36.0035L46.7672 31.4993Z" fill="#F25F2F"/>
<path d="M31.1783 31.499L23.3838 36.0032V45.004V36.0032L31.1783 40.4998L23.3838 36.0032L31.1783 31.499Z" fill="#E0DBD1"/>
<path d="M62.3564 31.4993V22.5062L70.151 27.0027L62.3564 22.4985L70.151 18.002L62.3564 22.4985V31.4993Z" fill="#E0DBD1"/>
<path d="M38.9733 36.0029L31.1787 40.4995V49.5003V40.4995L38.9733 45.0037L31.1787 40.4995L38.9733 36.0029Z" fill="#E0DBD1"/>
<path d="M77.9454 22.5059L70.1509 27.0024V36.0032V45.004V54.0047V63.0055L62.3563 67.502L54.5618 72.0062L46.7672 76.5028V67.502V58.5013L38.9727 63.0055V72.0062V81.007V90.0001L46.7672 85.5036L54.5618 81.007V80.9994L62.3563 76.5028L70.1509 72.0062L77.9454 67.502V58.5013V49.5005V40.4998V31.499V22.5059Z" fill="#E0DBD1"/>
<path d="M31.1787 31.4988L38.9733 36.003V27.0022L31.1787 22.498V31.4988Z" fill="#D94D20"/>
<path d="M54.5625 27.0027L62.3571 31.4993V22.4985L54.5625 18.002V27.0027Z" fill="#D94D20"/>
<path d="M62.3564 22.5059V31.499V40.4998V49.5005V58.5013L70.151 63.0055V54.0047V45.004V36.0032V27.0024L62.3564 22.5059Z" fill="#D94D20"/>
<path d="M54.5621 63.0052L46.7676 58.501V67.5017V76.5025L54.5621 72.0059L62.3567 67.5017L70.1512 63.0052L62.3567 58.501L54.5621 63.0052Z" fill="#BC3409"/>
<path d="M7.79455 54.0045V45.0038V36.003L15.5891 40.4996L23.3837 45.0038L31.1782 49.5003L38.9728 54.0045V45.0038L31.1782 40.4996V49.5003V40.4996L23.3837 36.003V45.0038V36.003L15.5891 31.4988V40.4996V31.4988L7.79455 27.0022V36.003V27.0022L0 22.498V31.4988V40.4996V49.5003V58.5011V67.5019L7.79455 71.9984V62.9977V54.0045Z" fill="#EEEAE2"/>
<path d="M12.6045 65.7761L7.79492 63.0049V71.998L15.5895 76.5022V67.5014L12.6045 65.7761Z" fill="#EEEAE2"/>
<path d="M23.3834 71.9985L22.4291 71.4489L15.5889 67.502V76.5027L23.3834 80.9993V71.9985Z" fill="#EEEAE2"/>
<path d="M70.151 63.0049L62.3564 67.5014L70.151 63.0049Z" fill="#EEEAE2"/>
<path d="M62.3571 67.502L54.5625 72.0062L62.3571 67.502Z" fill="#EEEAE2"/>
<path d="M54.5621 72.0059L46.7676 76.5024L54.5621 72.0059Z" fill="#EEEAE2"/>
<path d="M38.9725 72.0057V63.005L31.178 58.5008V67.5015V58.5008L30.7276 58.2412L23.3834 54.0042V63.005V54.0042L15.5889 49.5V58.5008L23.3834 63.005L31.178 67.5015V76.5023L23.3834 72.0057V80.9989L31.178 85.5031V76.5023V85.5031L38.9725 89.9996V81.0065V72.0057Z" fill="#EEEAE2"/>
<path d="M31.1787 31.4988V22.498L38.9733 27.0022L31.1787 22.498V31.4988Z" fill="#EEEAE2"/>
<path d="M38.9733 9.00098L31.1787 13.4975L38.9733 9.00098Z" fill="#EEEAE2"/>
<path d="M31.1783 13.4971L23.3838 18.0013L31.1783 13.4971Z" fill="#EEEAE2"/>
<path d="M23.3834 18.001L15.5889 22.4975L23.3834 18.001Z" fill="#EEEAE2"/>
<path d="M15.5895 22.498L7.79492 27.0022L15.5895 22.498Z" fill="#EEEAE2"/>
<path d="M54.5621 18.002L46.7676 22.4985L54.5621 18.002Z" fill="#EEEAE2"/>
<path d="M46.7672 22.498L38.9727 27.0022L46.7672 22.498Z" fill="#EEEAE2"/>
<path d="M54.5621 36.0029L46.7676 40.4995L54.5621 36.0029Z" fill="#EEEAE2"/>
<path d="M46.7672 40.5L38.9727 45.0042L46.7672 40.5Z" fill="#EEEAE2"/>
<path d="M43.9196 56.8601L46.7672 58.5014L38.9727 54.0049L43.9196 56.8601Z" fill="white"/>
<path d="M31.1787 22.4983L38.9733 27.0025L46.7678 22.4983L54.5624 18.0017L62.3569 13.4975L54.5624 9.00098L46.7678 13.4975L38.9733 18.0017L31.1787 22.4983Z" fill="white"/>
<path d="M15.5891 22.4981L23.3837 18.0015L31.1782 13.4973L38.9728 9.00076L46.7673 4.49656L38.9728 0L31.1782 4.49656L23.3837 9.00076L15.5891 13.4973L7.79455 18.0015L0 22.4981L7.79455 27.0023L15.5891 22.4981Z" fill="white"/>
<path d="M54.5623 36.003L62.3568 31.4988L54.5623 27.0022L46.7677 31.4988L38.9731 36.003L31.1786 31.4988L23.384 27.0022L15.5895 22.498L7.79492 27.0022L15.5895 31.4988L23.384 27.0022L15.5895 31.4988L23.384 36.003L31.1786 31.4988L23.384 36.003L31.1786 40.4996L38.9731 36.003L31.1786 40.4996L38.9731 45.0038L46.7677 40.4996L54.5623 36.003Z" fill="white"/>
<path d="M62.3571 22.498L70.1516 18.0014L62.3571 13.5049L54.5625 18.0014L62.3571 22.498Z" fill="white"/>
<path d="M70.151 27.0027L77.9456 22.4985L70.151 18.002L62.3564 22.4985L70.151 27.0027Z" fill="white"/>
<path d="M12.6045 65.7764L15.5895 67.5017L20.8953 70.5631L22.4298 71.4486L23.384 71.9983V72.0059L31.1786 76.5025V67.5017L23.384 63.0052L15.5895 58.501L7.79492 63.0052L12.6045 65.7764Z" fill="#BC3409"/>
<path d="M46.7671 58.5012L43.9195 56.8599L38.9725 54.0047L31.178 49.5005L23.3834 45.0039L15.5889 49.5005L23.3834 54.0047L30.239 57.9592L30.7276 58.2417L31.178 58.5012L38.9725 63.0054L46.7671 58.5012Z" fill="#BC3409"/>
<path d="M38.9727 54.0042L46.7672 58.5008V49.5L38.9727 54.0042Z" fill="#D94D20"/>
<path d="M54.5621 63.0054V54.0047V45.0039L46.7676 49.5005V58.5012L54.5621 63.0054Z" fill="#D94D20"/>
</g>
<defs>
<clipPath id="clip0_701_1298">
<rect width="77.9455" height="90" fill="white"/>
</clipPath>
</defs>
</svg>
