<svg width="78" height="90" viewBox="0 0 78 90" fill="none" xmlns="http://www.w3.org/2000/svg">
<g clip-path="url(#clip0_701_1366)">
<path d="M7.79492 54.0049V62.998V63.0056V54.0049L11.7266 56.2723L7.79492 54.0049Z" fill="#E0DBD1"/>
<path d="M15.5889 58.501V67.5017V58.501L21.5283 61.9288L19.49 60.7531L15.5889 58.501Z" fill="#E0DBD1"/>
<path d="M23.3838 63.0049L31.1783 67.5014L23.3838 63.0049Z" fill="#E0DBD1"/>
<path d="M31.1787 67.502L38.9733 72.0062L31.1787 67.502Z" fill="#E0DBD1"/>
<path d="M54.5618 36.0029L46.7672 40.4995L38.9727 45.0037V54.0045V63.0052L46.7672 58.501L54.5618 54.0045V63.0052V54.0045L62.3563 58.501L54.5618 54.0045V45.0037V36.0029Z" fill="#E0DBD1"/>
<path d="M70.151 54.0042L62.3564 58.5008V67.5015V76.5023L70.151 72.0057L77.9456 67.5015V58.5008V49.5L70.151 54.0042Z" fill="#E0DBD1"/>
<path d="M54.5618 63.0049L46.7672 67.5014L38.9727 72.0056V81.0064V89.9995L46.7672 85.503L54.5618 81.0064V72.0056V63.0049Z" fill="#E0DBD1"/>
<path d="M15.5895 22.4975L23.384 18.001L15.5895 22.4975L7.79492 27.0017V36.0025V27.0017L15.5895 31.4983L7.79492 27.0017L15.5895 22.4975Z" fill="#E0DBD1"/>
<path d="M23.3834 27.0022L31.178 22.498L23.3834 27.0022L15.5889 31.4988V40.4996V31.4988L23.3834 36.003L15.5889 31.4988L23.3834 27.0022Z" fill="#E0DBD1"/>
<path d="M31.1783 31.4985L38.9729 27.002L31.1783 31.4985L23.3838 36.0027L31.1783 40.4993L23.3838 36.0027L31.1783 31.4985Z" fill="#E0DBD1"/>
<path d="M38.9733 36.0032L46.7678 31.499L38.9733 36.0032L31.1787 40.4998L38.9733 45.004L31.1787 40.4998L38.9733 36.0032Z" fill="#E0DBD1"/>
<path d="M38.9733 9.00047L31.1787 13.497V22.4978V13.497L38.9733 18.0012L31.1787 13.497L38.9733 9.00047L46.7678 4.50391L38.9733 9.00047Z" fill="#E0DBD1"/>
<path d="M46.7672 13.4975L38.9727 18.0017V27.0025V18.0017L46.7672 22.4983L38.9727 18.0017L46.7672 13.4975L54.5618 9.00098L46.7672 13.4975Z" fill="#E0DBD1"/>
<path d="M54.5621 18.0014L46.7676 22.498L54.5621 27.0022L46.7676 22.498L54.5621 18.0014L62.3567 13.5049L54.5621 18.0014Z" fill="#E0DBD1"/>
<path d="M62.3561 22.5052L54.5615 27.0017V36.0025V27.0017L62.3561 31.4983L54.5615 27.0017L62.3561 22.5052L70.1506 18.001L62.3561 22.4975V22.5052Z" fill="#E0DBD1"/>
<path d="M77.9456 22.5059L70.151 27.0024L62.3564 31.499V40.4998V49.5005L70.151 45.004L77.9456 40.4998V31.499V22.5059Z" fill="#E0DBD1"/>
<path d="M62.3561 58.5014L54.5615 54.0049V63.0056V72.0064L62.3561 76.503V67.5022V58.5014Z" fill="#BC3409"/>
<path d="M54.5621 54.0039L46.7676 58.5005L54.5621 63.0047V54.0039Z" fill="#BC3409"/>
<path d="M23.3838 18.0017L31.1783 22.4983V13.4975L23.3838 9.00098V18.0017Z" fill="#BC3409"/>
<path d="M31.1787 22.4978L38.9733 27.002V18.0013L31.1787 13.4971V22.4978Z" fill="#BC3409"/>
<path d="M38.9727 27.0027L46.7672 31.4993L54.5618 36.0035V27.0027L46.7672 22.4985L38.9727 18.002V27.0027Z" fill="#BC3409"/>
<path d="M54.5615 27.002V36.0027V45.0035L62.3561 49.5V40.4993V31.4985L54.5615 27.002Z" fill="#BC3409"/>
<path d="M62.3561 49.5005L54.5615 45.0039V54.0047L62.3561 58.5012L70.1506 54.0047L77.9452 49.5005L70.1506 45.0039L62.3561 49.5005Z" fill="#F25F2F"/>
<path d="M7.79455 62.9973V54.0042L5.1073 52.4468L0 49.5V58.5008V67.5015L7.79455 71.9981V63.005V62.9973Z" fill="#EEEAE2"/>
<path d="M15.5895 67.5022V58.5014L13.9863 57.5777L12.2228 56.5624L11.7266 56.2723L7.79492 54.0049V63.0056V71.9988L15.5895 76.503V67.5022Z" fill="#EEEAE2"/>
<path d="M38.9725 72.0059L31.178 67.5017L23.3834 63.0052L21.5283 61.9288L15.5889 58.501V67.5017V76.5025L23.3834 80.9991L31.178 85.5033L38.9725 89.9998V81.0067V72.0059Z" fill="#EEEAE2"/>
<path d="M70.151 54.0049L62.3564 58.5014L70.151 54.0049Z" fill="#EEEAE2"/>
<path d="M38.9727 72.0062L46.7672 67.502L42.2325 70.1205L38.9727 72.0062Z" fill="#EEEAE2"/>
<path d="M7.79455 45.0038L15.5891 49.5003L23.3837 54.0045L38.9728 63.0053V54.0045V45.0038L31.1782 40.4996L23.3837 36.003L15.5891 31.4988V40.4996V49.5003V40.4996V31.4988L7.79455 27.0022V36.003V45.0038V36.003V27.0022L0 22.498V31.4988V40.4996L7.79455 45.0038Z" fill="#EEEAE2"/>
<path d="M38.9733 9.00098L31.1787 13.4975L38.9733 9.00098Z" fill="#EEEAE2"/>
<path d="M15.5895 22.498L7.79492 27.0022L15.5895 22.498Z" fill="#EEEAE2"/>
<path d="M46.7672 13.4971L38.9727 18.0013L46.7672 13.4971Z" fill="#EEEAE2"/>
<path d="M23.3834 27.002L15.5889 31.4985L23.3834 27.002Z" fill="#EEEAE2"/>
<path d="M54.5621 18.002L46.7676 22.4985L54.5621 18.002Z" fill="#EEEAE2"/>
<path d="M31.1783 31.499L23.3838 36.0032L31.1783 31.499Z" fill="#EEEAE2"/>
<path d="M62.3561 22.498L54.5615 27.0022L62.3561 22.5057V22.498Z" fill="#EEEAE2"/>
<path d="M38.9733 36.0029L31.1787 40.4995L38.9733 36.0029Z" fill="#EEEAE2"/>
<path d="M70.151 27.002L62.3564 31.4985L70.151 27.002Z" fill="#EEEAE2"/>
<path d="M46.7672 40.5L38.9727 45.0042L46.7672 40.5Z" fill="#EEEAE2"/>
<path d="M46.7676 58.501L54.5621 63.0052L46.7676 58.501Z" fill="white"/>
<path d="M38.9729 9.00076L46.7675 4.49656L38.9729 0L31.1783 4.49656L23.3838 9.00076L31.1783 13.4973L38.9729 9.00076Z" fill="white"/>
<path d="M15.5891 22.4978L23.3837 18.0013L15.5891 13.4971L7.79455 18.0013L0 22.4978L7.79455 27.002L15.5891 22.4978Z" fill="white"/>
<path d="M31.1786 22.4975L23.384 18.001L15.5895 22.4975L7.79492 27.0017L15.5895 31.4983L23.384 27.0017L31.1786 22.4975Z" fill="white"/>
<path d="M38.9733 9.00047L31.1787 13.497L38.9733 18.0012L46.7678 13.497L54.5624 9.00047L46.7678 4.50391L38.9733 9.00047Z" fill="white"/>
<path d="M38.9727 18.0017L46.7672 22.4983L54.5618 18.0017L62.3563 13.4975L54.5618 9.00098L46.7672 13.4975L38.9727 18.0017Z" fill="white"/>
<path d="M54.5621 18.0014L46.7676 22.498L54.5621 27.0022L62.3567 22.498L70.1512 18.0014L62.3567 13.5049L54.5621 18.0014Z" fill="white"/>
<path d="M54.5615 27.0017L62.3561 31.4983L70.1506 27.0017L77.9452 22.5052L70.1506 18.001L62.3561 22.5052L54.5615 27.0017Z" fill="white"/>
<path d="M46.7678 40.4998L54.5624 36.0032L46.7678 31.499L38.9733 36.0032L31.1787 40.4998L38.9733 45.004L46.7678 40.4998Z" fill="white"/>
<path d="M38.9725 27.0022L31.178 22.498L23.3834 27.0022L15.5889 31.4988L23.3834 36.003L31.178 31.4988L38.9725 27.0022Z" fill="white"/>
<path d="M46.7675 31.4985L38.9729 27.002L31.1783 31.4985L23.3838 36.0027L31.1783 40.4993L38.9729 36.0027L46.7675 31.4985Z" fill="white"/>
<path d="M7.79455 54.0047L11.7262 56.272L12.2224 56.5621L13.9859 57.5775L15.5891 58.5012L19.4902 60.7533L21.5285 61.929L23.3837 63.0054L31.1782 67.502L38.9728 72.0062L42.2326 70.1205L46.7673 67.502L54.5619 63.0054L46.7673 58.5012L38.9728 63.0054L23.3837 54.0047L15.5891 49.5005L7.79455 45.0039L0 49.5005L5.1073 52.4473L7.79455 54.0047Z" fill="#F25F2F"/>
</g>
<defs>
<clipPath id="clip0_701_1366">
<rect width="77.9455" height="90" fill="white"/>
</clipPath>
</defs>
</svg>
