<svg width="78" height="90" viewBox="0 0 78 90" fill="none" xmlns="http://www.w3.org/2000/svg">
<g clip-path="url(#clip0_701_1482)">
<path d="M23.3834 63.0057V54.005V45.0042L15.5889 40.5V49.5008V58.5015V67.5023V76.5031L23.3834 71.9989V63.0057Z" fill="#F25F2F"/>
<path d="M15.5895 22.4975L23.384 18.001L15.5895 22.4975L7.79492 27.0017V36.0025V27.0017L15.5895 31.4983L7.79492 27.0017L15.5895 22.4975Z" fill="#E0DBD1"/>
<path d="M38.9733 36.0032L46.7678 31.499L38.9733 36.0032L31.1787 40.4998V49.5005V40.4998L38.9733 45.004L31.1787 40.4998L38.9733 36.0032Z" fill="#E0DBD1"/>
<path d="M38.9733 9.00029L31.1787 13.4969V22.4976V13.4969L38.9733 18.0011L31.1787 13.4969L38.9733 9.00029L46.7678 4.49609L38.9733 9.00029Z" fill="#E0DBD1"/>
<path d="M46.7672 13.4975L38.9727 18.0017V27.0025V18.0017L46.7672 22.4983L38.9727 18.0017L46.7672 13.4975L54.5618 9.00098L46.7672 13.4975Z" fill="#E0DBD1"/>
<path d="M23.3834 27.0022L31.178 22.498L23.3834 27.0022L15.5889 31.4988V40.4996V31.4988L23.3834 36.003L15.5889 31.4988L23.3834 27.0022Z" fill="#E0DBD1"/>
<path d="M54.5621 18.0022L46.7676 22.4988V31.4996V22.4988L54.5621 27.003L46.7676 22.4988L54.5621 18.0022L62.3567 13.5057V13.498L54.5621 18.0022Z" fill="#E0DBD1"/>
<path d="M31.1783 31.4985L38.9729 27.002L31.1783 31.4985L23.3838 36.0027V45.0035V36.0027L31.1783 40.4993L23.3838 36.0027L31.1783 31.4985Z" fill="#E0DBD1"/>
<path d="M62.3561 22.4975L54.5615 27.0017V36.0025V27.0017L62.3561 31.4983L54.5615 27.0017L62.3561 22.4975L70.1506 18.001L62.3561 22.4975Z" fill="#E0DBD1"/>
<path d="M77.9454 22.5059L70.1509 27.0024L62.3563 31.499V40.4998V49.5005V58.5013V67.502L54.5618 72.0062V63.0055V54.0047V45.004V36.0032L46.7672 40.4998L38.9727 45.004V54.0047V63.0055V72.0062V81.007V90.0001L46.7672 85.5036L54.5618 81.007V80.9994L62.3563 76.5028L70.1509 72.0062L77.9454 67.502V58.5013V49.5005V40.4998V31.499V22.5059Z" fill="#E0DBD1"/>
<path d="M23.3838 18.0017L31.1783 22.4983V13.4975L23.3838 9.00098V18.0017Z" fill="#D94D20"/>
<path d="M31.1787 22.4978L38.9733 27.002V18.0013L31.1787 13.4971V22.4978Z" fill="#D94D20"/>
<path d="M38.9727 27.0027L46.7672 31.4993V22.4985L38.9727 18.002V27.0027Z" fill="#D94D20"/>
<path d="M46.7676 31.4988L54.5621 36.003V27.0022L46.7676 22.498V31.4988Z" fill="#D94D20"/>
<path d="M54.5615 27.002V36.0027V45.0035V54.0042V63.005L62.3561 67.5016V58.5008V49.5V40.4993V31.4985L54.5615 27.002Z" fill="#D94D20"/>
<path d="M54.5615 63.0049V72.0056L62.3561 67.5014L54.5615 63.0049Z" fill="#BC3409"/>
<path d="M7.79455 62.9977V54.0045V45.0038V36.003V27.0022L0 22.498V31.4988V40.4996V49.5003V58.5011V67.5019L7.79455 71.9984V63.0053V62.9977Z" fill="#EEEAE2"/>
<path d="M31.1786 76.5023V67.5016V58.5008V49.5V40.4993L23.384 36.0027V45.0035V36.0027L15.5895 31.4985V40.4993V31.4985L7.79492 27.002V36.0027V45.0035V54.0042V63.005V71.9981L15.5895 76.5023V67.5016V58.5008V49.5V40.4993L23.384 45.0035V54.0042V63.005V71.9981V72.0058V80.9989L31.1786 85.5031V76.5023Z" fill="#EEEAE2"/>
<path d="M62.3561 67.502L54.5615 72.0062L62.3561 67.502Z" fill="#EEEAE2"/>
<path d="M38.9733 72.0065V63.0057V54.005V45.0042L31.1787 40.5V49.5008V58.5015V67.5023V76.5031V85.5038L38.9733 90.0004V81.0073V72.0065Z" fill="#EEEAE2"/>
<path d="M38.9733 9.00098L31.1787 13.4975L38.9733 9.00098Z" fill="#EEEAE2"/>
<path d="M15.5895 22.498L7.79492 27.0022L15.5895 22.498Z" fill="#EEEAE2"/>
<path d="M46.7672 13.4971L38.9727 18.0013L46.7672 13.4971Z" fill="#EEEAE2"/>
<path d="M23.3834 27.002L15.5889 31.4985L23.3834 27.002Z" fill="#EEEAE2"/>
<path d="M54.5621 18.002L46.7676 22.4985L54.5621 18.002Z" fill="#EEEAE2"/>
<path d="M31.1783 31.499L23.3838 36.0032L31.1783 31.499Z" fill="#EEEAE2"/>
<path d="M62.3561 22.498L54.5615 27.0022L62.3561 22.498Z" fill="#EEEAE2"/>
<path d="M38.9733 36.0029L31.1787 40.4995L38.9733 36.0029Z" fill="#EEEAE2"/>
<path d="M70.151 27.002L62.3564 31.4985L70.151 27.002Z" fill="#EEEAE2"/>
<path d="M46.7672 40.5L38.9727 45.0042L46.7672 40.5Z" fill="#EEEAE2"/>
<path d="M38.9729 9.00076L46.7675 4.49656L38.9729 0L31.1783 4.49656L23.3838 9.00076L31.1783 13.4973L38.9729 9.00076Z" fill="white"/>
<path d="M15.5891 22.4978L23.3837 18.0013L15.5891 13.4971L7.79455 18.0013L0 22.4978L7.79455 27.002L15.5891 22.4978Z" fill="white"/>
<path d="M31.1787 13.4969L38.9733 18.0011L46.7678 13.4969L54.5624 9.00029L46.7678 4.49609L38.9733 9.00029L31.1787 13.4969Z" fill="white"/>
<path d="M38.9727 18.0017L46.7672 22.4983L54.5618 18.0017L62.3563 13.4975L54.5618 9.00098L46.7672 13.4975L38.9727 18.0017Z" fill="white"/>
<path d="M46.7676 22.498L54.5621 27.0022L62.3567 22.498L70.1512 18.0014L62.3567 13.5049L54.5621 18.0014L46.7676 22.498Z" fill="white"/>
<path d="M46.7677 31.4983L38.9731 27.0017L31.1786 22.4975L23.384 18.001L15.5895 22.4975L7.79492 27.0017L15.5895 31.4983L23.384 27.0017L31.1786 22.4975L23.384 27.0017L15.5895 31.4983L23.384 36.0025L31.1786 31.4983L38.9731 27.0017L31.1786 31.4983L23.384 36.0025L31.1786 40.4991L38.9731 36.0025L46.7677 31.4983Z" fill="white"/>
<path d="M54.5615 27.0017L62.3561 31.4983L70.1506 27.0017L77.9452 22.4975L70.1506 18.001L62.3561 22.4975L54.5615 27.0017Z" fill="white"/>
<path d="M54.5624 36.0032L46.7678 31.499L38.9733 36.0032L31.1787 40.4998L38.9733 45.004L46.7678 40.4998L54.5624 36.0032Z" fill="white"/>
</g>
<defs>
<clipPath id="clip0_701_1482">
<rect width="77.9455" height="90" fill="white"/>
</clipPath>
</defs>
</svg>
