<svg width="78" height="90" viewBox="0 0 78 90" fill="none" xmlns="http://www.w3.org/2000/svg">
<g clip-path="url(#clip0_701_1434)">
<path d="M15.5895 67.5022L7.79492 63.0057V62.998V71.9988V63.0057L15.5895 67.5022Z" fill="#E0DBD1"/>
<path d="M23.3834 71.9985L15.5889 67.502V76.5027V67.502L23.3834 71.9985Z" fill="#E0DBD1"/>
<path d="M30.7279 76.2429L30.2393 75.9604L23.3838 72.0059V80.999V72.0059L30.7279 76.2429Z" fill="#E0DBD1"/>
<path d="M38.9733 80.9995L31.1787 76.5029V85.5037V76.5029L38.9733 80.9995Z" fill="#E0DBD1"/>
<path d="M62.3563 67.5017L54.5618 72.0059L46.7672 76.5025L38.9727 81.0067V89.9998L46.7672 85.5033L54.5618 81.0067V80.9991L62.3563 76.5025L70.1509 72.0059L77.9454 67.5017V58.501L70.1509 63.0052L62.3563 67.5017Z" fill="#E0DBD1"/>
<path d="M7.79492 45.0039L13.2229 48.1339L7.79492 45.0039V54.0047V45.0039Z" fill="#E0DBD1"/>
<path d="M15.5889 49.5L21.2458 52.7675L17.6501 50.6909L15.5889 49.5V58.5008V49.5Z" fill="#E0DBD1"/>
<path d="M23.3838 54.0049L30.2317 57.9594L29.0866 57.2952L23.3838 54.0049V63.0056V54.0049Z" fill="#E0DBD1"/>
<path d="M31.1787 58.501L38.9733 63.0052L31.1787 58.501V67.5017V58.501Z" fill="#E0DBD1"/>
<path d="M62.3563 49.5008L54.5618 54.005L46.7672 58.5015L38.9727 63.0057V72.0065L46.7672 67.5023L54.5618 63.0057L62.3563 58.5015L70.1509 54.005L77.9454 49.5008V40.5L70.1509 45.0042L62.3563 49.5008Z" fill="#E0DBD1"/>
<path d="M7.79492 27.002V36.0027V27.002L13.574 30.3381L11.4059 29.0861L7.79492 27.002Z" fill="#E0DBD1"/>
<path d="M15.5889 31.499V40.4998V31.499L21.8184 35.0948L20.1389 34.1252L15.5889 31.499Z" fill="#E0DBD1"/>
<path d="M23.3838 36.0029V45.0037V36.0029L29.1629 39.3391L26.9948 38.0871L23.3838 36.0029Z" fill="#E0DBD1"/>
<path d="M31.1787 40.5V49.5008V40.5L38.9733 45.0042L31.1787 40.5Z" fill="#E0DBD1"/>
<path d="M77.9454 22.5059L70.1509 27.0024L66.3032 29.224L62.3563 31.499L54.5618 36.0032L46.7672 40.4998L38.9727 45.004V54.0047L46.7672 49.5005L54.5618 45.004L62.3563 40.4998L70.1509 36.0032L77.9454 31.499V22.5059Z" fill="#E0DBD1"/>
<path d="M62.3564 58.5014L54.5619 63.0056L46.7673 67.5022L38.9728 72.0064L31.1782 67.5022L23.3837 63.0056L18.5894 60.2344L15.5891 58.5014L7.79455 54.0049L0 58.5014L7.79455 62.998V63.0056L15.5891 67.5022L23.3837 71.9988V72.0064L30.2392 75.9609L30.7278 76.2434L31.1782 76.503L38.9728 80.9995V81.0072L46.7673 76.503L54.5619 72.0064L62.3564 67.5022L70.151 63.0056L77.9455 58.5014L70.151 54.0049L62.3564 58.5014Z" fill="#D94D20"/>
<path d="M62.3564 40.4995L54.5619 45.0037L46.7673 49.5003L38.9728 54.0045L31.1782 49.5003L27.4145 47.3321L23.3837 45.0037L17.6045 41.6675L15.5891 40.4995L7.79455 36.0029L0 40.4995L5.42794 43.6372L7.79455 45.0037L13.2225 48.1337L15.5891 49.5003L17.6504 50.6912L21.2461 52.7677L23.3837 54.0045L29.0864 57.2948L30.2316 57.959L31.1782 58.501L38.9728 63.0052L43.4693 60.4019L46.7673 58.501L54.5619 54.0045L62.3564 49.5003L70.151 45.0037L77.9455 40.4995L70.151 36.0029L62.3564 40.4995Z" fill="#D94D20"/>
<path d="M7.79455 62.9975L0 58.501V67.5017L7.79455 71.9983V62.9975Z" fill="#EEEAE2"/>
<path d="M15.5895 67.5014L7.79492 63.0049V71.998L15.5895 76.5022V67.5014Z" fill="#EEEAE2"/>
<path d="M23.3834 71.9985L15.5889 67.502V76.5027L23.3834 80.9993V72.0062V71.9985Z" fill="#EEEAE2"/>
<path d="M30.7279 76.2429L23.3838 72.0059V80.999L31.1783 85.5032V76.5024L30.7279 76.2429Z" fill="#EEEAE2"/>
<path d="M70.151 63.0049L62.3564 67.5014L70.151 63.0049Z" fill="#EEEAE2"/>
<path d="M62.3571 67.502L54.5625 72.0062L62.3571 67.502Z" fill="#EEEAE2"/>
<path d="M54.5621 72.0059L46.7676 76.5024L54.5621 72.0059Z" fill="#EEEAE2"/>
<path d="M46.7672 76.5029L38.9727 81.0071L46.7672 76.5029Z" fill="#EEEAE2"/>
<path d="M38.9733 80.9995L31.1787 76.5029V85.5037L38.9733 90.0003V81.0071V80.9995Z" fill="#EEEAE2"/>
<path d="M7.79455 54.005L15.5891 58.5015L18.5894 60.2345L23.3837 63.0057L31.1782 67.5023L38.9728 72.0065V63.0057L31.1782 58.5015V67.5023V58.5015L30.2316 57.9595L23.3837 54.005V63.0057V54.005L21.2461 52.7682L15.5891 49.5008V58.5015V49.5008L13.2225 48.1342L7.79455 45.0042V54.005V45.0042L5.42794 43.6377L0 40.5V49.5008L7.79455 54.005Z" fill="#EEEAE2"/>
<path d="M70.151 45.0039L62.3564 49.5005L70.151 45.0039Z" fill="#EEEAE2"/>
<path d="M62.3571 49.5L54.5625 54.0042L62.3571 49.5Z" fill="#EEEAE2"/>
<path d="M54.5621 54.0039L46.7676 58.5005L54.5621 54.0039Z" fill="#EEEAE2"/>
<path d="M43.4692 60.4019L38.9727 63.0052L46.7672 58.501L43.4692 60.4019Z" fill="#EEEAE2"/>
<path d="M7.79455 36.003L15.5891 40.4996L17.6045 41.6676L23.3837 45.0038L27.4145 47.3322L31.1782 49.5003L38.9728 54.0045V45.0038L31.1782 40.4996V49.5003V40.4996L29.1628 39.3392L23.3837 36.003V45.0038V36.003L21.8186 35.0945L15.5891 31.4988V40.4996V31.4988L13.5737 30.3384L7.79455 27.0022V36.003V27.0022L0 22.498V31.4988L7.79455 36.003Z" fill="#EEEAE2"/>
<path d="M70.1514 27.002L66.3037 29.2235L70.1514 27.002Z" fill="#EEEAE2"/>
<path d="M54.5625 36.0032L62.3571 31.499L57.7002 34.1863L54.5625 36.0032Z" fill="#EEEAE2"/>
<path d="M54.5621 36.0029L46.7676 40.4995L54.5621 36.0029Z" fill="#EEEAE2"/>
<path d="M46.7672 40.5L38.9727 45.0042L46.7672 40.5Z" fill="#EEEAE2"/>
<path d="M7.79455 27.0023L11.4055 29.0864L13.5737 30.3385L15.5891 31.4989L20.1391 34.125L21.8186 35.0946L23.3837 36.0031L26.9947 38.0872L29.1628 39.3392L31.1782 40.4996L38.9728 45.0038L46.7673 40.4996L54.5619 36.0031L57.6996 34.1861L62.3564 31.4989L66.3033 29.2239L70.151 27.0023L77.9455 22.5057V22.4981L72.4489 19.3299L70.151 18.0015L65.2727 15.1845L62.3564 13.4973L58.4782 11.2605L54.5619 9.00076L52.6228 7.87853L46.7673 4.49656L38.9728 0L31.1782 4.49656L23.3837 9.00076L15.5891 13.4973L7.79455 18.0015L0 22.4981L7.79455 27.0023Z" fill="white"/>
</g>
<defs>
<clipPath id="clip0_701_1434">
<rect width="77.9455" height="90" fill="white"/>
</clipPath>
</defs>
</svg>
