<svg width="50" height="52" viewBox="0 0 50 52" fill="none" xmlns="http://www.w3.org/2000/svg">
<g clip-path="url(#clip0_701_1257)">
<path fill-rule="evenodd" clip-rule="evenodd" d="M10.5411 35.3473L19.2805 40.3757V49.4074L2.69181 39.8631L10.5418 35.3473H10.5411ZM9.64167 23.7383V33.7952L1.79165 38.311V19.2217L9.64167 23.7376V23.7383ZM40.3583 28.7689L40.3569 28.766V18.1937L48.2069 13.6779V23.22H48.2055V33.7959L40.3591 38.3103V28.7696L40.3583 28.7689ZM19.2833 29.2829V38.3153L11.4333 33.7995V24.767L19.2833 29.2829ZM19.2833 18.1916V27.2219L10.9869 22.449L10.9847 22.4461L2.69325 17.6754L10.5397 13.161L19.2833 18.1916ZM28.9243 22.701L21.0743 27.2168V8.12826L28.9243 12.6441V22.701ZM28.9243 24.7714V34.3135H28.9228V44.8894L21.0764 49.4038V39.8631L21.075 39.8602V29.2887L28.925 24.7728L28.9243 24.7714ZM27.0228 1.60751L20.1756 5.54674L19.2819 6.06074V16.1262L10.5346 11.0942L0.893657 16.6402L0 17.1542V40.3764C6.72807 44.2458 13.4547 48.1166 20.1821 51.9875L21.0757 51.4735L30.7174 45.9267V35.8612L39.4647 40.8933L40.3583 40.38L44.6084 37.9345L50 34.8325V23.2214L49.9978 23.2186V11.6118L39.9111 5.80806L39.909 5.80518L29.8172 0L27.0228 1.60751ZM39.4567 16.6409L30.2687 11.3548L30.2673 11.3519L21.9751 6.58122L29.8216 2.0668L39.0132 7.3551V7.35366L47.306 12.1244L39.456 16.6402L39.4567 16.6409ZM38.5652 27.2211L30.7152 22.7053V13.6728L38.5652 18.1887V27.2211ZM38.5631 29.2815V38.3132L30.7152 33.7988V24.7663L38.5631 29.2815Z" fill="white"/>
</g>
<defs>
<clipPath id="clip0_701_1257">
<rect width="50" height="51.9868" fill="white"/>
</clipPath>
</defs>
</svg>
